External Loads File
version=1
nRows=77
nColumns=13
Range=5.000000e-03-10 seconds
endheader
time 	forceRightX 	forceRightY 	forceRightZ 	pointRightX 	pointRightY 	pointRightZ 	forceLeftX 	forceLeftY 	forceLeftZ 	pointLeftX 	pointLeftY 	pointLeftZ 		
2.505000 24.691058 -89.510222 -0.000000 0.149967 0.226481 -0.123977 -80.758846 227.132161 -0.000000 0.426189 0.423569 -0.367536
2.510000 25.448707 -89.330631 -0.000000 0.150994 0.225346 -0.123916 -81.081183 226.698624 -0.000000 0.425641 0.424619 -0.367558
2.515000 26.178565 -89.164830 -0.000000 0.151938 0.224245 -0.123858 -81.342560 226.122607 -0.000000 0.425136 0.425656 -0.367452
2.520000 26.819305 -89.027350 -0.000000 0.152946 0.223325 -0.123845 -81.319889 225.408242 -0.000000 0.424636 0.426438 -0.367418
2.525000 27.443098 -88.890236 -0.000000 0.153934 0.222394 -0.123821 -81.151304 224.451825 -0.000000 0.424173 0.427231 -0.367366
2.530000 27.954087 -88.776018 -0.000000 0.154930 0.221696 -0.123811 -80.557257 223.348315 -0.000000 0.423775 0.427830 -0.367326
2.535000 28.448078 -88.646806 -0.000000 0.155956 0.220932 -0.123777 -79.743594 222.074699 -0.000000 0.423371 0.428318 -0.367239
2.540000 28.863335 -88.512705 -0.000000 0.157013 0.220528 -0.123762 -78.529558 220.788906 -0.000000 0.422974 0.428819 -0.367147
2.545000 29.282814 -88.342768 -0.000000 0.158086 0.219997 -0.123754 -77.127279 219.523396 -0.000000 0.422604 0.429290 -0.367104
2.550000 29.628983 -88.170073 -0.000000 0.159030 0.219440 -0.124056 -75.381712 218.432313 -0.000000 0.422231 0.429562 -0.367065
2.555000 29.921892 -88.003577 -0.000000 0.160074 0.219035 -0.124041 -73.398235 217.546181 -0.000000 0.421868 0.429739 -0.367004
2.560000 30.155723 -87.857821 -0.000000 0.161130 0.218720 -0.123971 -71.227707 216.855881 -0.000000 0.421575 0.429832 -0.366954
2.565000 30.325198 -87.739609 -0.000000 0.162133 0.218469 -0.123949 -68.930741 216.261705 -0.000000 0.421347 0.429802 -0.366928
2.570000 30.402087 -87.660107 -0.000000 0.163025 0.218342 -0.123936 -66.524116 215.584632 -0.000000 0.421281 0.429630 -0.366962
2.575000 30.400358 -87.616085 -0.000000 0.163833 0.218333 -0.123878 -64.166967 214.532845 -0.000000 0.421346 0.429257 -0.366920
2.580000 30.268787 -87.626607 -0.000000 0.164460 0.218582 -0.123874 -61.920119 212.818512 -0.000000 0.421625 0.428684 -0.366978
2.585000 29.974119 -87.702773 -0.000000 0.164987 0.219124 -0.123868 -59.951267 210.140129 -0.000000 0.422163 0.427756 -0.366957
2.590000 29.492898 -87.847921 -0.000000 0.165231 0.219927 -0.123865 -58.500447 206.245830 -0.000000 0.422957 0.426492 -0.366946
2.595000 28.855826 -88.040822 -0.000000 0.165292 0.221030 -0.123843 -57.945670 200.970049 -0.000000 0.423955 0.424992 -0.367246
2.600000 27.891608 -88.323776 -0.000000 0.165098 0.222646 -0.123891 -58.179508 194.457371 -0.000000 0.425399 0.422952 -0.367197
2.605000 26.685386 -88.657184 -0.000000 0.164656 0.224692 -0.123836 -59.658072 186.884262 -0.000000 0.427045 0.420574 -0.367258
2.610000 25.094599 -89.074324 -0.000000 0.163847 0.227219 -0.123844 -62.309176 178.785176 -0.000000 0.429212 0.417665 -0.367139
2.615000 23.153083 -89.551574 -0.000000 0.162746 0.230276 -0.123808 -66.365301 170.774347 -0.000000 0.431660 0.414280 -0.367136
2.620000 20.811655 -90.084005 -0.000000 0.161398 0.233959 -0.123774 -71.743767 163.663595 -0.000000 0.434351 0.410305 -0.367077
2.625000 18.099991 -90.638346 -0.000000 0.159679 0.238078 -0.123810 -78.317943 158.236323 -0.000000 0.437358 0.405824 -0.366887
2.630000 15.107118 -91.167421 -0.000000 0.158232 0.242728 -0.123897 -85.817269 155.117743 -0.000000 0.440417 0.400760 -0.366818
2.635000 11.879652 -91.635399 -0.000000 0.156654 0.247773 -0.123959 -93.644855 154.730218 -0.000000 0.443376 0.395343 -0.366758
2.640000 8.623832 -91.994796 -0.000000 0.155238 0.252899 -0.123942 -101.301240 156.992244 -0.000000 0.445995 0.389791 -0.366806
2.645000 5.388936 -92.239555 -0.000000 0.154083 0.258031 -0.124002 -108.017890 161.638172 -0.000000 0.448258 0.384159 -0.366846
2.650000 2.345995 -92.372532 -0.000000 0.153222 0.262971 -0.124002 -113.447863 168.059537 -0.000000 0.449892 0.378765 -0.366922
2.655000 -0.543305 -92.418935 -0.000000 0.152549 0.267644 -0.124018 -117.258659 175.883590 -0.000000 0.451176 0.373547 -0.367103
2.660000 -3.418943 -92.391795 -0.000000 0.151993 0.272272 -0.124001 -119.339590 185.049759 -0.000000 0.452226 0.368280 -0.367211
2.665000 -6.444663 -92.278736 -0.000000 0.151423 0.277148 -0.123938 -119.826959 195.747523 -0.000000 0.453078 0.362741 -0.367258
2.670000 -9.544036 -92.063829 -0.000000 0.150893 0.282263 -0.123819 -119.448286 207.945441 -0.000000 0.453789 0.357208 -0.367274
2.675000 -12.660187 -91.736069 -0.000000 0.150488 0.287623 -0.123789 -118.818539 221.596846 -0.000000 0.454274 0.351841 -0.367345
2.680000 -15.818107 -91.282291 -0.000000 0.150215 0.292838 -0.123808 -118.163583 236.689942 -0.000000 0.454596 0.346171 -0.367493
2.685000 -19.073012 -90.684012 -0.000000 0.149968 0.298214 -0.123774 -117.431958 253.200671 -0.000000 0.454703 0.340314 -0.367586
2.690000 -22.435809 -89.924062 -0.000000 0.150003 0.303839 -0.123724 -116.564825 270.982344 -0.000000 0.454826 0.334323 -0.367654
2.695000 -25.751452 -89.028501 -0.000000 0.150162 0.309498 -0.123464 -115.975133 289.564881 -0.000000 0.454695 0.328520 -0.367674
2.700000 -28.981668 -88.011141 -0.000000 0.150431 0.314891 -0.123699 -115.789382 308.533533 -0.000000 0.454438 0.322758 -0.367749
2.705000 -32.356724 -86.794725 -0.000000 0.150683 0.320528 -0.124067 -115.160719 327.793178 -0.000000 0.454176 0.316728 -0.367885
2.710000 -35.634841 -85.457021 -0.000000 0.151198 0.326243 -0.124258 -114.883723 346.611680 -0.000000 0.453797 0.311039 -0.368132
2.715000 -38.815856 -84.002048 -0.000000 0.151945 0.331624 -0.124393 -114.916180 364.550340 -0.000000 0.453383 0.305226 -0.367806
2.720000 -42.013519 -82.370292 -0.000000 0.152817 0.337169 -0.124476 -114.619266 381.322281 -0.000000 0.452915 0.299291 -0.367852
2.725000 -45.293904 -80.502437 -0.000000 0.153765 0.343688 -0.124544 -113.406937 396.593010 -0.000000 0.452368 0.293677 -0.367844
2.730000 -48.151311 -78.679196 -0.000000 0.155012 0.348889 -0.124667 -113.618275 409.267444 -0.000000 0.451722 0.288008 -0.367817
2.735000 -51.011933 -76.680133 -0.000000 0.156396 0.354338 -0.124750 -113.158126 419.688999 -0.000000 0.451024 0.282225 -0.367885
2.740000 -53.682303 -74.654182 -0.000000 0.157829 0.359793 -0.124938 -113.131192 427.478926 -0.000000 0.450238 0.276896 -0.367772
2.745000 -56.343272 -72.505856 -0.000000 0.159620 0.365018 -0.124981 -112.634932 432.964476 -0.000000 0.449390 0.271188 -0.367719
2.750000 -58.868246 -70.352467 -0.000000 0.161530 0.370296 -0.125005 -112.479137 436.161865 -0.000000 0.448362 0.265967 -0.367648
2.755000 -61.371725 -68.120108 -0.000000 0.164109 0.375468 -0.124713 -112.011758 437.616901 -0.000000 0.447306 0.260766 -0.367486
2.760000 -63.792812 -65.864795 -0.000000 0.166381 0.380605 -0.124829 -111.595673 437.738287 -0.000000 0.446049 0.255633 -0.367416
2.765000 -66.175111 -63.533775 -0.000000 0.168845 0.385676 -0.124871 -110.857490 437.186828 -0.000000 0.444643 0.250439 -0.367249
2.770000 -68.467148 -61.154324 -0.000000 0.171494 0.390692 -0.124919 -109.994483 436.476292 -0.000000 0.443064 0.245392 -0.367118
2.775000 -70.675774 -58.695677 -0.000000 0.174382 0.395587 -0.124953 -108.798051 436.193894 -0.000000 0.441285 0.240366 -0.367005
2.780000 -72.829502 -56.096345 -0.000000 0.177435 0.400603 -0.124983 -106.884723 436.928154 -0.000000 0.439343 0.235285 -0.366950
2.785000 -74.829888 -53.459051 -0.000000 0.180612 0.405459 -0.125001 -104.869039 438.958197 -0.000000 0.437102 0.230490 -0.366821
2.790000 -76.755422 -50.660756 -0.000000 0.184074 0.410188 -0.125052 -101.996530 442.804462 -0.000000 0.434676 0.225478 -0.366800
2.795000 -78.557302 -47.754644 -0.000000 0.187481 0.415137 -0.125226 -98.516245 448.618824 -0.000000 0.432099 0.220580 -0.366773
2.800000 -80.169000 -44.857688 -0.000000 0.191018 0.419704 -0.125234 -94.980698 456.365372 -0.000000 0.429236 0.215977 -0.366648
2.805000 -81.691337 -41.816659 -0.000000 0.194851 0.424259 -0.125310 -90.387768 466.244403 -0.000000 0.426199 0.211254 -0.366616
2.810000 -83.051349 -38.800414 -0.000000 0.198748 0.428627 -0.125521 -85.568571 478.008830 -0.000000 0.423000 0.206826 -0.366551
2.815000 -84.257088 -35.859388 -0.000000 0.201976 0.432974 -0.126340 -80.684944 491.497373 -0.000000 0.419562 0.202369 -0.366432
2.820000 -85.432215 -32.748038 -0.000000 0.206121 0.437204 -0.126399 -74.171846 506.722173 -0.000000 0.415954 0.197957 -0.366382
2.825000 -86.508775 -29.628644 -0.000000 0.210547 0.441397 -0.126820 -66.871228 523.154396 -0.000000 0.412205 0.193893 -0.366263
2.830000 -87.516346 -26.397271 -0.000000 0.215532 0.445366 -0.126170 -58.116383 540.368502 -0.000000 0.408287 0.189833 -0.366222
2.835000 -88.458932 -22.980730 -0.000000 0.221210 0.449360 -0.125518 -47.427503 557.799040 -0.000000 0.404190 0.185894 -0.366138
2.840000 -89.136570 -20.192088 -0.000000 0.224297 0.453206 -0.126723 -40.033997 574.438678 -0.000000 0.399971 0.182217 -0.366046
2.845000 -89.835683 -16.897615 -0.000000 0.229551 0.456796 -0.126713 -28.847614 590.275924 -0.000000 0.395585 0.178502 -0.366000
2.850000 -90.412955 -13.669905 -0.000000 0.234642 0.460312 -0.126973 -17.675859 604.448889 -0.000000 0.391144 0.175067 -0.365948
2.855000 -90.846527 -10.692856 -0.000000 0.238882 0.463516 -0.126958 -7.981403 616.463410 -0.000000 0.386617 0.171851 -0.365811
2.860000 -91.183331 -7.574705 -0.000000 0.243680 0.466663 -0.127184 2.704720 626.000546 -0.000000 0.382025 0.168706 -0.365762
2.865000 -91.395278 -4.441868 -0.000000 0.248590 0.469752 -0.127331 13.420566 632.758436 -0.000000 0.377324 0.165816 -0.365682
2.870000 -91.478477 -1.291330 -0.000000 0.253606 0.472746 -0.127142 24.059276 636.573330 -0.000000 0.372525 0.163036 -0.365607
2.875000 -91.432731 1.782558 -0.000000 0.258635 0.475422 -0.127434 33.819650 637.445352 -0.000000 0.367730 0.160552 -0.365538
2.880000 -91.268690 4.832743 -0.000000 0.263648 0.478028 -0.127632 42.947803 635.489642 -0.000000 0.362847 0.158204 -0.365422
2.885000 -91.002085 7.867519 -0.000000 0.268793 0.480330 -0.127642 51.435926 630.947400 -0.000000 0.357911 0.155972 -0.365345
